{
   "accessors" : [
      {
         "bufferView" : 0,
         "byteOffset" : 0,
         "componentType" : 5123,
         "count" : 4218,
         "max" : [ 1308 ],
         "min" : [ 0 ],
         "name" : "buffer-0-group-0-mesh-0-indices",
         "type" : "SCALAR"
      },
      {
         "bufferView" : 1,
         "byteOffset" : 0,
         "componentType" : 5126,
         "count" : 1309,
         "max" : [ -4.128900051116943, 1.83050000667572, 1.77209997177124 ],
         "min" : [ -4.558899879455566, 0.4050999879837036, 1.437999963760376 ],
         "name" : "buffer-0-group-0-mesh-0-position",
         "type" : "VEC3"
      },
      {
         "bufferView" : 1,
         "byteOffset" : 15708,
         "componentType" : 5126,
         "count" : 1309,
         "max" : [ 0.9998390674591064, 0.9881284236907959, 0.9996972680091858 ],
         "min" : [ -0.9998374581336975, -0.9880697131156921, -0.9986242055892944 ],
         "name" : "buffer-0-group-0-mesh-0-normal",
         "type" : "VEC3"
      },
      {
         "bufferView" : 2,
         "byteOffset" : 0,
         "componentType" : 5126,
         "count" : 1309,
         "max" : [ 0.9919000267982483, -0.007499999832361937 ],
         "min" : [ 0.02070000022649765, -0.9891999959945679 ],
         "name" : "buffer-0-group-0-mesh-0-texcoord",
         "type" : "VEC2"
      },
      {
         "bufferView" : 0,
         "byteOffset" : 8436,
         "componentType" : 5123,
         "count" : 1014,
         "max" : [ 345 ],
         "min" : [ 0 ],
         "name" : "buffer-0-group-1-mesh-0-indices",
         "type" : "SCALAR"
      },
      {
         "bufferView" : 1,
         "byteOffset" : 31416,
         "componentType" : 5126,
         "count" : 346,
         "max" : [ -4.066999912261963, 1.233700037002563, 1.732599973678589 ],
         "min" : [ -4.593999862670898, 1.083999991416931, 1.472599983215332 ],
         "name" : "buffer-0-group-1-mesh-0-position",
         "type" : "VEC3"
      },
      {
         "bufferView" : 1,
         "byteOffset" : 35568,
         "componentType" : 5126,
         "count" : 346,
         "max" : [ 0.9853622317314148, 0.6359341144561768, 0.9982616305351257 ],
         "min" : [ -0.9929442405700684, -0.9663711190223694, -0.9981622099876404 ],
         "name" : "buffer-0-group-1-mesh-0-normal",
         "type" : "VEC3"
      },
      {
         "bufferView" : 2,
         "byteOffset" : 10472,
         "componentType" : 5126,
         "count" : 346,
         "max" : [ 0.6007000207901001, -0.2998000085353851 ],
         "min" : [ 0.239999994635582, -0.7861999869346619 ],
         "name" : "buffer-0-group-1-mesh-0-texcoord",
         "type" : "VEC2"
      },
      {
         "bufferView" : 0,
         "byteOffset" : 10464,
         "componentType" : 5123,
         "count" : 3600,
         "max" : [ 1431 ],
         "min" : [ 0 ],
         "name" : "buffer-0-group-2-mesh-0-indices",
         "type" : "SCALAR"
      },
      {
         "bufferView" : 1,
         "byteOffset" : 39720,
         "componentType" : 5126,
         "count" : 1432,
         "max" : [ -4.270400047302246, 0.5001999735832214, 1.729900002479553 ],
         "min" : [ -4.492300033569336, 0.3007999956607819, 1.404899954795837 ],
         "name" : "buffer-0-group-2-mesh-0-position",
         "type" : "VEC3"
      },
      {
         "bufferView" : 1,
         "byteOffset" : 56904,
         "componentType" : 5126,
         "count" : 1432,
         "max" : [ 0.9999414682388306, 0.9986961483955383, 0.9986050128936768 ],
         "min" : [ -0.9998046159744263, -0.999815821647644, -0.998610258102417 ],
         "name" : "buffer-0-group-2-mesh-0-normal",
         "type" : "VEC3"
      },
      {
         "bufferView" : 2,
         "byteOffset" : 13240,
         "componentType" : 5126,
         "count" : 1432,
         "max" : [ 0.9958000183105469, -0.01040000002831221 ],
         "min" : [ 0.01470000017434359, -0.9884999990463257 ],
         "name" : "buffer-0-group-2-mesh-0-texcoord",
         "type" : "VEC2"
      },
      {
         "bufferView" : 0,
         "byteOffset" : 17664,
         "componentType" : 5123,
         "count" : 813,
         "max" : [ 272 ],
         "min" : [ 0 ],
         "name" : "buffer-0-group-3-mesh-0-indices",
         "type" : "SCALAR"
      },
      {
         "bufferView" : 1,
         "byteOffset" : 74088,
         "componentType" : 5126,
         "count" : 273,
         "max" : [ -4.201900005340576, 2.015500068664551, 1.739400029182434 ],
         "min" : [ -4.429699897766113, 1.789999961853027, 1.512699961662292 ],
         "name" : "buffer-0-group-3-mesh-0-position",
         "type" : "VEC3"
      },
      {
         "bufferView" : 1,
         "byteOffset" : 77364,
         "componentType" : 5126,
         "count" : 273,
         "max" : [ 0.995608925819397, 0.996103048324585, 0.9979166984558105 ],
         "min" : [ -0.9910674095153809, -0.8328874111175537, -0.9988189935684204 ],
         "name" : "buffer-0-group-3-mesh-0-normal",
         "type" : "VEC3"
      },
      {
         "bufferView" : 2,
         "byteOffset" : 24696,
         "componentType" : 5126,
         "count" : 273,
         "max" : [ 0.9882000088691711, -0.004699999932199717 ],
         "min" : [ 0.009100000374019146, -1.012699961662292 ],
         "name" : "buffer-0-group-3-mesh-0-texcoord",
         "type" : "VEC2"
      },
      {
         "bufferView" : 0,
         "byteOffset" : 19290,
         "componentType" : 5123,
         "count" : 1380,
         "max" : [ 290 ],
         "min" : [ 0 ],
         "name" : "buffer-0-group-4-mesh-0-indices",
         "type" : "SCALAR"
      },
      {
         "bufferView" : 1,
         "byteOffset" : 80640,
         "componentType" : 5126,
         "count" : 291,
         "max" : [ -4.252600193023682, 1.971400022506714, 1.726300001144409 ],
         "min" : [ -4.415200233459473, 1.76800000667572, 1.553900003433228 ],
         "name" : "buffer-0-group-4-mesh-0-position",
         "type" : "VEC3"
      },
      {
         "bufferView" : 1,
         "byteOffset" : 84132,
         "componentType" : 5126,
         "count" : 291,
         "max" : [ 0.9986635446548462, 0.9950554370880127, 0.9982550144195557 ],
         "min" : [ -0.999725341796875, -0.994140625, -0.99994295835495 ],
         "name" : "buffer-0-group-4-mesh-0-normal",
         "type" : "VEC3"
      },
      {
         "bufferView" : 2,
         "byteOffset" : 26880,
         "componentType" : 5126,
         "count" : 291,
         "max" : [ 0.9940000176429749, -0.03150000050663948 ],
         "min" : [ 0.007199999876320362, -0.7804999947547913 ],
         "name" : "buffer-0-group-4-mesh-0-texcoord",
         "type" : "VEC2"
      }
   ],
   "asset" : {
      "extras" : {
         "GOOGLE_processor_version" : 294144208
      },
      "generator" : "Obj2GltfConverter",
      "version" : "2.0"
   },
   "bufferViews" : [
      {
         "buffer" : 0,
         "byteLength" : 22050,
         "byteOffset" : 0,
         "name" : "buffer-0-bufferview-ushort",
         "target" : 34963
      },
      {
         "buffer" : 0,
         "byteLength" : 87624,
         "byteOffset" : 22056,
         "byteStride" : 12,
         "name" : "buffer-0-bufferview-vec3",
         "target" : 34962
      },
      {
         "buffer" : 0,
         "byteLength" : 29208,
         "byteOffset" : 109680,
         "byteStride" : 8,
         "name" : "buffer-0-bufferview-vec2",
         "target" : 34962
      }
   ],
   "buffers" : [
      {
         "byteLength" : 138888,
         "name" : "buffer-0",
         "uri" : "google poly.bin"
      }
   ],
   "cameras" : [
      {
         "perspective" : {
            "yfov" : 0.7853981633974483,
            "znear" : 0.1000000014901161
         },
         "type" : "perspective"
      }
   ],
   "extensions" : {
      "KHR_lights_punctual" : {
         "lights" : [
            {
               "color" : [ 1, 0.9333333333333333, 0.8666666666666667 ],
               "intensity" : 0.25,
               "name" : "headLight",
               "type" : "directional"
            },
            {
               "color" : [ 1, 0.9333333333333333, 0.8666666666666667 ],
               "intensity" : 0.324999988079071,
               "name" : "keyLight",
               "type" : "directional"
            }
         ]
      }
   },
   "extensionsUsed" : [ "GOOGLE_backgrounds", "GOOGLE_camera_settings", "KHR_lights_punctual" ],
   "extras" : {
      "GOOGLE_initial_camera_motion" : {
         "motionPath" : "FULL_ROTATION"
      },
      "GOOGLE_lighting_rig" : {
         "disableShadows" : false
      }
   },
   "images" : [
      {
         "mimeType" : "image/jpeg",
         "name" : "7_Default-diffuse-image",
         "uri" : "12c56d30-nen.jpg"
      },
      {
         "mimeType" : "image/jpeg",
         "name" : "8_Default-diffuse-image",
         "uri" : "17b596f0-nen.jpg"
      },
      {
         "mimeType" : "image/jpeg",
         "name" : "9_Default-diffuse-image",
         "uri" : "180d94b0-nen.jpg"
      },
      {
         "mimeType" : "image/jpeg",
         "name" : "6_Default-diffuse-image",
         "uri" : "17ab7d30-nen.jpg"
      },
      {
         "mimeType" : "image/jpeg",
         "name" : "Material__63-diffuse-image",
         "uri" : "1751db30-nen.jpg"
      }
   ],
   "materials" : [
      {
         "alphaMode" : "OPAQUE",
         "doubleSided" : true,
         "name" : "7_Default",
         "pbrMetallicRoughness" : {
            "baseColorFactor" : [ 0.588, 0.588, 0.588, 1 ],
            "baseColorTexture" : {
               "index" : 0,
               "texCoord" : 0
            },
            "metallicFactor" : 0,
            "roughnessFactor" : 0.9699476628648295
         }
      },
      {
         "alphaMode" : "OPAQUE",
         "doubleSided" : true,
         "name" : "8_Default",
         "pbrMetallicRoughness" : {
            "baseColorFactor" : [ 0.588, 0.588, 0.588, 1 ],
            "baseColorTexture" : {
               "index" : 1,
               "texCoord" : 0
            },
            "metallicFactor" : 0,
            "roughnessFactor" : 0.9699476628648295
         }
      },
      {
         "alphaMode" : "OPAQUE",
         "doubleSided" : true,
         "name" : "9_Default",
         "pbrMetallicRoughness" : {
            "baseColorFactor" : [ 0.588, 0.588, 0.588, 1 ],
            "baseColorTexture" : {
               "index" : 2,
               "texCoord" : 0
            },
            "metallicFactor" : 0,
            "roughnessFactor" : 0.9699476628648295
         }
      },
      {
         "alphaMode" : "OPAQUE",
         "doubleSided" : true,
         "name" : "6_Default",
         "pbrMetallicRoughness" : {
            "baseColorFactor" : [ 0.588, 0.588, 0.588, 1 ],
            "baseColorTexture" : {
               "index" : 3,
               "texCoord" : 0
            },
            "metallicFactor" : 0,
            "roughnessFactor" : 0.9699476628648295
         }
      },
      {
         "alphaMode" : "OPAQUE",
         "doubleSided" : true,
         "name" : "Material__63",
         "pbrMetallicRoughness" : {
            "baseColorFactor" : [ 0.588, 0.588, 0.588, 1 ],
            "baseColorTexture" : {
               "index" : 4,
               "texCoord" : 0
            },
            "metallicFactor" : 0,
            "roughnessFactor" : 0.9699476628648295
         }
      }
   ],
   "meshes" : [
      {
         "name" : "buffer-0-mesh-0",
         "primitives" : [
            {
               "attributes" : {
                  "NORMAL" : 2,
                  "POSITION" : 1,
                  "TEXCOORD_0" : 3
               },
               "indices" : 0,
               "material" : 0,
               "mode" : 4
            },
            {
               "attributes" : {
                  "NORMAL" : 6,
                  "POSITION" : 5,
                  "TEXCOORD_0" : 7
               },
               "indices" : 4,
               "material" : 1,
               "mode" : 4
            },
            {
               "attributes" : {
                  "NORMAL" : 10,
                  "POSITION" : 9,
                  "TEXCOORD_0" : 11
               },
               "indices" : 8,
               "material" : 2,
               "mode" : 4
            },
            {
               "attributes" : {
                  "NORMAL" : 14,
                  "POSITION" : 13,
                  "TEXCOORD_0" : 15
               },
               "indices" : 12,
               "material" : 3,
               "mode" : 4
            },
            {
               "attributes" : {
                  "NORMAL" : 18,
                  "POSITION" : 17,
                  "TEXCOORD_0" : 19
               },
               "indices" : 16,
               "material" : 4,
               "mode" : 4
            }
         ]
      }
   ],
   "nodes" : [
      {
         "mesh" : 0,
         "name" : "node-0"
      },
      {
         "children" : [ 2 ]
      },
      {
         "children" : [ 3 ],
         "extras" : {
            "isTransformNode" : 1
         },
         "translation" : [ -4.353526736810255, 1.216493973702248, 1.596013238001814 ]
      },
      {
         "children" : [ 0 ],
         "translation" : [ 4.353526736810255, -1.216493973702248, -1.596013238001814 ]
      },
      {
         "camera" : 0,
         "children" : [ 5 ],
         "rotation" : [
            -0.06566968502464292,
            -0.02383303403573839,
            -0.001568943086817119,
            0.9975555209485866
         ],
         "translation" : [ -4.462833203345242, 1.518854284177654, 3.881246067580833 ]
      },
      {
         "extensions" : {
            "KHR_lights_punctual" : {
               "light" : 0
            }
         },
         "extras" : {
            "isHeadLight" : 1
         },
         "name" : "headLightNode",
         "translation" : [ -1.073080958449652, 0.536540479224826, 0.536540479224826 ]
      },
      {
         "extensions" : {
            "KHR_lights_punctual" : {
               "light" : 1
            }
         },
         "extras" : {
            "isKeyLight" : 1
         },
         "name" : "keyLightNode",
         "rotation" : [ -0.7505326882858236, -0.3752663441429118, 0, 0.5439447166468927 ],
         "scale" : [ 0, 0, 1.083811768034148 ],
         "translation" : [ -5.442844881538316, 3.210803377656442, 0.5039413664044323 ]
      }
   ],
   "samplers" : [
      {
         "name" : "7_Default-diffuse-sampler",
         "wrapS" : 10497,
         "wrapT" : 10497
      },
      {
         "name" : "8_Default-diffuse-sampler",
         "wrapS" : 10497,
         "wrapT" : 10497
      },
      {
         "name" : "9_Default-diffuse-sampler",
         "wrapS" : 10497,
         "wrapT" : 10497
      },
      {
         "name" : "6_Default-diffuse-sampler",
         "wrapS" : 10497,
         "wrapT" : 10497
      },
      {
         "name" : "Material__63-diffuse-sampler",
         "wrapS" : 10497,
         "wrapT" : 10497
      }
   ],
   "scene" : 0,
   "scenes" : [
      {
         "extensions" : {
            "GOOGLE_backgrounds" : {
               "color" : [ 0, 0.5882352941176471, 0.5333333333333333 ]
            },
            "GOOGLE_camera_settings" : {
               "pivot" : [ 0, 0, 0 ]
            }
         },
         "extras" : {
            "GOOGLE_camera_index" : {
               "cameraIndex" : 0,
               "nodeIndex" : 4
            },
            "GOOGLE_geometry_data" : {
               "stats" : {
                  "centroid" : [ -4.359033113504168, 1.043179841588145, 1.587753134438581 ],
                  "radius" : 1.073080958449652,
                  "stdev" : 0.6223776735075321
               },
               "visualCenterPoint" : [ -4.353526736810255, 1.216493973702248, 1.596013238001814 ]
            },
            "GOOGLE_hemi_light" : {
               "groundColor" : [ 0, 0.5882352941176471, 0.5333333333333333 ]
            }
         },
         "name" : "scene-0",
         "nodes" : [ 1, 4, 6 ]
      }
   ],
   "textures" : [
      {
         "name" : "7_Default-diffuse-texture",
         "sampler" : 0,
         "source" : 0
      },
      {
         "name" : "8_Default-diffuse-texture",
         "sampler" : 1,
         "source" : 1
      },
      {
         "name" : "9_Default-diffuse-texture",
         "sampler" : 2,
         "source" : 2
      },
      {
         "name" : "6_Default-diffuse-texture",
         "sampler" : 3,
         "source" : 3
      },
      {
         "name" : "Material__63-diffuse-texture",
         "sampler" : 4,
         "source" : 4
      }
   ]
}
